<svg width="512" height="472" viewBox="0 0 512 472" fill="none" xmlns="http://www.w3.org/2000/svg">
<path d="M402.351 361.058H199.031L187.225 313.834H453.812L512 81.085H129.038L108.882 0.459961H0V33.86H82.804L165.012 362.687C140.959 368.658 123.074 390.424 123.074 416.298C123.074 446.759 147.855 471.54 178.315 471.54C208.774 471.54 233.556 446.759 233.556 416.298C233.556 408.543 231.943 401.16 229.045 394.457H351.622C348.725 401.16 347.111 408.543 347.111 416.298C347.111 446.759 371.892 471.54 402.352 471.54C432.811 471.54 457.593 446.759 457.593 416.298C457.592 385.84 432.811 361.058 402.351 361.058ZM287.029 280.434H249.949L241.665 214.159H287.03V280.434H287.029ZM411.912 114.484H469.222L452.654 180.759H403.628L411.912 114.484ZM399.453 214.16H444.303L427.735 280.435H391.169L399.453 214.16ZM320.428 114.484H378.252L369.968 180.759H320.429V114.484H320.428ZM320.428 214.159H365.793L357.509 280.434H320.429V214.159H320.428ZM287.029 114.484V180.759H237.49L229.206 114.484H287.029ZM137.388 114.484H195.546L203.83 180.759H153.957L137.388 114.484ZM162.307 214.159H208.006L216.29 280.434H178.876L162.307 214.159ZM178.315 438.141C166.272 438.141 156.474 428.343 156.474 416.299C156.474 404.256 166.272 394.458 178.315 394.458C190.358 394.458 200.156 404.256 200.156 416.299C200.156 428.343 190.358 438.141 178.315 438.141ZM402.351 438.141C390.308 438.141 380.51 428.343 380.51 416.299C380.51 404.256 390.308 394.458 402.351 394.458C414.394 394.458 424.192 404.256 424.192 416.299C424.192 428.343 414.394 438.141 402.351 438.141Z" fill="white"/>
</svg>
